# xmcd
#
# Track frame offsets:
# 150
# 15460
# 31555
# 49992
# 66003
# 82002
# 98304
# 115988
# 130604
# 143533
# 155087
# 172128
# 185415
# 199368
#
# Disc length: 2961 seconds
#
#
# Revision: 0
# Processed by: cddbd v1.5.2PL0 Copyright (c) Steve Scherf et al.
# Submitted via: FreeRIP 2.951 
#
DISCID=b40b8f0e
DTITLE=Bruno and Marrone - Popularidade
DYEAR=2000
DGENRE=Sertaneja
TTITLE0=Dormi na praça
TTITLE1=Não vê que te amo (together)
TTITLE2=Fruto especial
TTITLE3=Preciso amar de novo
TTITLE4=Acorrentado em você
TTITLE5=Te amo e não te quero
TTITLE6=Machuca demais
TTITLE7=Favo de mel
TTITLE8=É nisso que dá
TTITLE9=O campeão
TTITLE10=meu segredo
TTITLE11=Goiás é mais
TTITLE12=Apenas um sorriso
TTITLE13=Pago calado
EXTD=
EXTT0=
EXTT1=
EXTT2=
EXTT3=
EXTT4=
EXTT5=
EXTT6=
EXTT7=
EXTT8=
EXTT9=
EXTT10=
EXTT11=
EXTT12=
EXTT13=
PLAYORDER=
